# xmcd
#
# Track frame offsets: 
#        150
#        29147
#        48288
#        74973
#        97676
#        118404
#        143136
#        163782
#
# Disc length: 2482 seconds
#
# Revision: 6
# Processed by: cddbd v1.5.2PL0 Copyright (c) Steve Scherf et al.
# Submitted via: ExactAudioCopyFreeDBPlugin 1.0
#
DISCID=7809b008
DTITLE=Various Artist - Audio 1999-06 - Blues Best
DYEAR=1999
DGENRE=Blues
TTITLE0=Carl Weathersby - A Real Mother Fuh Ya
TTITLE1=Paul DeLay and Band - I'm Gonna Miss Talkin' To You
TTITLE2=Melvin Taylor and The Slack Band - Voodoo Chile
TTITLE3=Chico Banks - Red Dress
TTITLE4=Finis Tasby - I Just Got To Know
TTITLE5=Clarence Spady - Picture Of Love
TTITLE6=Eric Sardinas - Tired Of Tryin'
TTITLE7=Howard and The White Boys - I Thank You
EXTD=Beilage der AUDIO 6/99
EXTT0=
EXTT1=
EXTT2=Corrected.
EXTT3=
EXTT4=Corrected.
EXTT5=Corrected.
EXTT6=
EXTT7=Corrected.
PLAYORDER=
